<svg xmlns="http://www.w3.org/2000/svg" xmlns:xlink="http://www.w3.org/1999/xlink" width="500" zoomAndPan="magnify" viewBox="0 0 375 374.999991" height="500" preserveAspectRatio="xMidYMid meet" version="1.2"><defs/><g id="4fe0cda599"><g style="fill:#ffffff;fill-opacity:1;"><g transform="translate(25.349653, 229.959698)"><path style="stroke:none" d="M 1.671875 -117.453125 L 58.734375 -117.453125 L 58.734375 -100.671875 L 39.4375 -100.671875 L 39.4375 0 L 20.96875 0 L 20.96875 -100.671875 L 1.671875 -100.671875 Z M 1.671875 -117.453125 "/></g></g><g style="fill:#ffffff;fill-opacity:1;"><g transform="translate(79.209826, 229.959698)"><path style="stroke:none" d="M 45.3125 0 C 45.082031 -0.78125 44.851562 -1.503906 44.625 -2.171875 C 44.40625 -2.847656 44.210938 -3.6875 44.046875 -4.6875 C 43.878906 -5.695312 43.765625 -6.984375 43.703125 -8.546875 C 43.648438 -10.117188 43.625 -12.082031 43.625 -14.4375 L 43.625 -32.890625 C 43.625 -38.367188 42.671875 -42.226562 40.765625 -44.46875 C 38.867188 -46.707031 35.796875 -47.828125 31.546875 -47.828125 L 25.171875 -47.828125 L 25.171875 0 L 6.71875 0 L 6.71875 -117.453125 L 34.5625 -117.453125 C 44.1875 -117.453125 51.148438 -115.210938 55.453125 -110.734375 C 59.765625 -106.265625 61.921875 -99.5 61.921875 -90.4375 L 61.921875 -81.21875 C 61.921875 -69.132812 57.890625 -61.191406 49.828125 -57.390625 C 54.535156 -55.484375 57.753906 -52.375 59.484375 -48.0625 C 61.210938 -43.757812 62.078125 -38.535156 62.078125 -32.390625 L 62.078125 -14.265625 C 62.078125 -11.359375 62.1875 -8.8125 62.40625 -6.625 C 62.632812 -4.445312 63.195312 -2.238281 64.09375 0 Z M 25.171875 -100.671875 L 25.171875 -64.609375 L 32.390625 -64.609375 C 35.859375 -64.609375 38.566406 -65.5 40.515625 -67.28125 C 42.472656 -69.070312 43.453125 -72.316406 43.453125 -77.015625 L 43.453125 -88.59375 C 43.453125 -92.84375 42.695312 -95.914062 41.1875 -97.8125 C 39.675781 -99.71875 37.300781 -100.671875 34.0625 -100.671875 Z M 25.171875 -100.671875 "/></g></g><g style="fill:#ffffff;fill-opacity:1;"><g transform="translate(140.117132, 229.959698)"><path style="stroke:none" d="M 6.71875 -117.453125 L 25.171875 -117.453125 L 25.171875 0 L 6.71875 0 Z M 6.71875 -117.453125 "/></g></g><g style="fill:#ffffff;fill-opacity:1;"><g transform="translate(165.453182, 229.959698)"><path style="stroke:none" d="M 60.234375 -43.796875 L 60.234375 -28.1875 C 60.234375 -18.675781 57.910156 -11.375 53.265625 -6.28125 C 48.628906 -1.195312 41.78125 1.34375 32.71875 1.34375 C 23.65625 1.34375 16.800781 -1.195312 12.15625 -6.28125 C 7.519531 -11.375 5.203125 -18.675781 5.203125 -28.1875 L 5.203125 -89.265625 C 5.203125 -98.773438 7.519531 -106.070312 12.15625 -111.15625 C 16.800781 -116.25 23.65625 -118.796875 32.71875 -118.796875 C 41.78125 -118.796875 48.628906 -116.25 53.265625 -111.15625 C 57.910156 -106.070312 60.234375 -98.773438 60.234375 -89.265625 L 60.234375 -77.859375 L 42.78125 -77.859375 L 42.78125 -90.4375 C 42.78125 -94.6875 41.914062 -97.675781 40.1875 -99.40625 C 38.457031 -101.144531 36.132812 -102.015625 33.21875 -102.015625 C 30.3125 -102.015625 27.988281 -101.144531 26.25 -99.40625 C 24.519531 -97.675781 23.65625 -94.6875 23.65625 -90.4375 L 23.65625 -27.015625 C 23.65625 -22.765625 24.519531 -19.800781 26.25 -18.125 C 27.988281 -16.445312 30.3125 -15.609375 33.21875 -15.609375 C 36.132812 -15.609375 38.457031 -16.445312 40.1875 -18.125 C 41.914062 -19.800781 42.78125 -22.765625 42.78125 -27.015625 L 42.78125 -43.796875 Z M 60.234375 -43.796875 "/></g></g><g style="fill:#ffffff;fill-opacity:1;"><g transform="translate(223.675865, 229.959698)"><path style="stroke:none" d="M 30.875 -46.8125 L 25.171875 -36.078125 L 25.171875 0 L 6.71875 0 L 6.71875 -117.453125 L 25.171875 -117.453125 L 25.171875 -66.28125 L 49.671875 -117.453125 L 67.796875 -117.453125 L 42.109375 -65.109375 L 67.796875 0 L 48.828125 0 Z M 30.875 -46.8125 "/></g></g><g style="fill:#ffffff;fill-opacity:1;"><g transform="translate(286.596646, 229.959698)"><path style="stroke:none" d="M 4.359375 -89.265625 C 4.359375 -98.773438 6.625 -106.070312 11.15625 -111.15625 C 15.6875 -116.25 22.484375 -118.796875 31.546875 -118.796875 C 40.609375 -118.796875 47.40625 -116.25 51.9375 -111.15625 C 56.46875 -106.070312 58.734375 -98.773438 58.734375 -89.265625 L 58.734375 -84.734375 L 41.28125 -84.734375 L 41.28125 -90.4375 C 41.28125 -94.6875 40.46875 -97.675781 38.84375 -99.40625 C 37.21875 -101.144531 34.953125 -102.015625 32.046875 -102.015625 C 29.140625 -102.015625 26.875 -101.144531 25.25 -99.40625 C 23.632812 -97.675781 22.828125 -94.6875 22.828125 -90.4375 C 22.828125 -86.414062 23.71875 -82.863281 25.5 -79.78125 C 27.289062 -76.707031 29.53125 -73.800781 32.21875 -71.0625 C 34.90625 -68.320312 37.785156 -65.582031 40.859375 -62.84375 C 43.929688 -60.101562 46.8125 -57.109375 49.5 -53.859375 C 52.1875 -50.617188 54.421875 -46.925781 56.203125 -42.78125 C 57.992188 -38.644531 58.890625 -33.78125 58.890625 -28.1875 C 58.890625 -18.675781 56.566406 -11.375 51.921875 -6.28125 C 47.285156 -1.195312 40.4375 1.34375 31.375 1.34375 C 22.3125 1.34375 15.457031 -1.195312 10.8125 -6.28125 C 6.175781 -11.375 3.859375 -18.675781 3.859375 -28.1875 L 3.859375 -36.25 L 21.3125 -36.25 L 21.3125 -27.015625 C 21.3125 -22.765625 22.175781 -19.800781 23.90625 -18.125 C 25.644531 -16.445312 27.96875 -15.609375 30.875 -15.609375 C 33.78125 -15.609375 36.097656 -16.445312 37.828125 -18.125 C 39.566406 -19.800781 40.4375 -22.765625 40.4375 -27.015625 C 40.4375 -31.046875 39.539062 -34.597656 37.75 -37.671875 C 35.957031 -40.742188 33.71875 -43.648438 31.03125 -46.390625 C 28.351562 -49.128906 25.472656 -51.867188 22.390625 -54.609375 C 19.316406 -57.359375 16.4375 -60.351562 13.75 -63.59375 C 11.070312 -66.84375 8.835938 -70.535156 7.046875 -74.671875 C 5.253906 -78.804688 4.359375 -83.671875 4.359375 -89.265625 Z M 4.359375 -89.265625 "/></g></g></g></svg>